<svg width="161" height="41" viewBox="0 0 161 41" fill="none" xmlns="http://www.w3.org/2000/svg">
<path d="M20.361 40.3036C31.606 40.3036 40.7219 31.2991 40.7219 20.1914C40.7219 9.08377 31.606 0.0792236 20.361 0.0792236C9.11591 0.0792236 0 9.08377 0 20.1914C0 31.2991 9.11591 40.3036 20.361 40.3036Z" fill="url(#paint0_linear_561_14)"/>
<path opacity="0.36" d="M0 20.7921C0 10.9934 6.21788 2.92739 15.3091 0.67657C22.1986 -1.0297 28.4232 0.508253 33.8057 5.10561C37.5144 8.27393 39.6193 12.3663 40.4346 17.0957C40.5972 18.1098 40.6799 19.1349 40.6818 20.1617C40.7057 24.2567 39.4674 28.262 37.1315 31.6452C34.7957 35.0283 31.4728 37.6293 27.6046 39.1023C22.3857 41.0561 17.1768 40.8779 12.0281 38.6898C10.1237 37.8779 8.31612 36.9076 6.80592 35.4917C3.75376 32.6823 1.59261 29.0583 0.584701 25.0594C0.227451 23.6633 0.0313022 22.2318 0 20.7921H0ZM8.43974 24.4752C8.50182 24.5158 8.57173 24.5431 8.64506 24.5556C8.71838 24.5681 8.79354 24.5654 8.86576 24.5477C8.93798 24.53 9.00571 24.4978 9.06465 24.4529C9.12359 24.408 9.17248 24.3516 9.20821 24.2871C8.92755 24.3498 8.70704 24.5281 8.43974 24.4752ZM6.28804 8C6.2279 7.89439 6.37825 7.84159 6.35821 7.74918C6.33816 7.65677 6.44174 7.53796 6.29807 7.51155C6.23957 7.49269 6.17591 7.49735 6.12087 7.52453C6.06584 7.55171 6.02386 7.59922 6.00405 7.65677C5.89713 7.9406 6.14437 7.92739 6.29138 7.9868C6.29138 8.09571 6.1544 8.10891 6.11764 8.19802C6.0408 8.37954 5.90715 8.56106 6.11764 8.73927C6.16776 8.78548 6.26131 8.86139 6.29473 8.73927C6.32709 8.64322 6.38689 8.55845 6.46692 8.49521C6.54696 8.43197 6.6438 8.39294 6.74578 8.38284C6.90616 8.34654 6.90281 8.21452 6.89947 8.11881C6.89805 8.08972 6.89034 8.06126 6.87688 8.03534C6.86343 8.00942 6.84452 7.98664 6.82143 7.96852C6.79834 7.95039 6.7716 7.93735 6.743 7.93026C6.71439 7.92317 6.68459 7.92219 6.65557 7.92739C6.53187 7.94531 6.4092 7.96954 6.28804 8ZM2.61278 20.0363C2.83664 20.4257 2.98031 20.868 3.35117 21.165C3.15694 20.7543 2.92309 20.3631 2.65287 19.9967C2.61946 19.8383 2.43904 19.6139 2.57937 19.538C2.7197 19.462 2.91348 19.6634 3.00703 19.8152C3.47145 20.5941 4.20651 21.2013 4.48048 22.1056C4.57037 22.4048 4.77551 22.6572 5.05182 22.8086C5.15559 22.8881 5.27834 22.9399 5.40825 22.959C5.53816 22.978 5.67085 22.9637 5.79355 22.9175C6.18781 22.7261 6.29473 22.7459 6.61882 23.0528C6.77919 23.2046 6.91952 23.4026 7.1534 23.429C7.35055 23.4633 7.53757 23.5403 7.70105 23.6544C7.86453 23.7685 8.00041 23.917 8.09895 24.0891C8.15909 24.1716 8.19918 24.2772 8.3228 24.3201C8.25031 24.1079 8.22635 23.8825 8.25264 23.6601C8.27937 22.9736 8.28271 22.9736 7.58441 22.9703H7.55434C7.31044 22.9703 7.22022 22.8416 7.27702 22.6172C7.33382 22.3927 7.41735 22.264 7.48417 22.0825C7.52093 21.9868 7.57104 21.8746 7.46747 21.7921C7.41729 21.755 7.35459 21.7385 7.29239 21.7458C7.23019 21.7532 7.17324 21.784 7.13335 21.8317C6.96296 21.9736 6.79924 22.132 6.63218 22.2706C6.57749 22.3262 6.51162 22.3698 6.43883 22.3986C6.36603 22.4275 6.28792 22.4409 6.20954 22.4381C6.13115 22.4353 6.05423 22.4163 5.98373 22.3824C5.91323 22.3484 5.85072 22.3002 5.80024 22.2409C5.66934 22.1137 5.57082 21.9576 5.51275 21.7855C5.45468 21.6134 5.4387 21.4302 5.46612 21.2508C5.50956 20.5248 5.95727 19.9307 6.54531 19.8152C6.89963 19.7569 7.2587 19.7315 7.61782 19.7393C7.78926 19.7259 7.96011 19.7715 8.10139 19.8683C8.24267 19.9652 8.34569 20.1073 8.39297 20.2706C8.46475 20.5288 8.63002 20.7519 8.85739 20.8977C8.80059 20.6238 8.75715 20.4026 8.70369 20.1815C8.61014 19.7921 8.57339 19.4323 8.93089 19.1254C9.0519 18.9874 9.1439 18.827 9.20153 18.6535C9.33517 18.3663 9.45545 18.0726 9.58242 17.7855C9.63587 17.67 9.69602 17.5611 9.83634 17.5281C10.1 17.4509 10.3289 17.2866 10.4845 17.0627C10.6549 16.8548 10.8186 16.637 10.9924 16.4323C11.1475 16.2437 11.3676 16.118 11.6105 16.0792C11.6807 16.0792 11.7742 16.033 11.821 16.1122C11.8678 16.1914 11.7909 16.2343 11.7608 16.2937C11.6807 16.3865 11.6327 16.5021 11.6239 16.6238C11.9474 16.5274 12.2279 16.3248 12.4191 16.0495C12.3229 16.0759 12.2222 16.0825 12.1234 16.0689C12.0245 16.0552 11.9296 16.0217 11.8444 15.9703C11.704 15.8987 11.5921 15.7824 11.527 15.6403C11.4702 15.4917 11.6406 15.4554 11.6974 15.3564C11.4368 15.2079 11.2263 15.3894 10.9723 15.4191C11.0167 15.3094 11.0858 15.211 11.1744 15.1315C11.2629 15.0521 11.3687 14.9935 11.4835 14.9604C11.7287 14.8939 11.9811 14.8573 12.2353 14.8515C12.5882 14.8501 12.9342 14.7556 13.2376 14.5776C13.3078 14.5314 13.408 14.4884 13.3947 14.3894C13.3813 14.2904 13.2744 14.2706 13.1909 14.2541C12.9637 14.2079 12.7298 14.1749 12.4525 14.1287C12.5627 14.0627 12.6295 14.0264 12.6897 13.9835C12.7498 13.9406 12.9002 13.9208 12.8868 13.8053C12.8734 13.6898 12.7565 13.6964 12.6763 13.6766C12.5163 13.6338 12.3703 13.5504 12.2531 13.4346C12.1359 13.3187 12.0514 13.1746 12.0081 13.0165C11.9575 12.8501 11.8722 12.6961 11.7575 12.5644C11.6339 12.4323 11.5303 12.3531 11.4234 12.5842C11.3721 12.6769 11.3042 12.7597 11.2229 12.8284C11.0225 13.0165 10.8888 12.9736 10.8086 12.7129C10.7607 12.4629 10.6287 12.2363 10.434 12.0698C10.2393 11.9032 9.99339 11.8066 9.73611 11.7954C9.40199 11.7591 9.38195 11.7954 9.38195 12.1056C9.38292 12.2006 9.36475 12.2948 9.32849 12.3828C9.29494 12.4334 9.27226 12.4903 9.26183 12.5498C9.2514 12.6094 9.25345 12.6705 9.26785 12.7292C9.28226 12.788 9.30871 12.8432 9.34557 12.8915C9.38244 12.9398 9.42893 12.9801 9.48218 13.0099C9.63587 13.1122 9.61583 13.2145 9.52562 13.3663C9.28672 13.7617 9.10243 14.1868 8.97767 14.6304C8.97767 14.6964 9.00774 14.8053 8.89414 14.8185C8.84473 14.821 8.79564 14.8093 8.7529 14.7847C8.71017 14.76 8.67564 14.7236 8.65358 14.6799C8.56618 14.4972 8.50759 14.3025 8.47984 14.1023C8.46201 13.9932 8.40621 13.8936 8.32205 13.8207C8.23789 13.7478 8.13064 13.7062 8.01876 13.703C7.57065 13.6157 7.13287 13.483 6.71237 13.3069C6.63552 13.2739 6.53195 13.2607 6.52192 13.1551C6.47728 12.9776 6.38086 12.8169 6.24461 12.6931C6.19564 12.652 6.15665 12.6006 6.13054 12.5427C6.10444 12.4847 6.09188 12.4217 6.09381 12.3583C6.09573 12.2949 6.11209 12.2327 6.14167 12.1764C6.17124 12.1201 6.21328 12.0711 6.26466 12.033C6.4551 11.8416 6.67228 11.6766 6.87943 11.505C7.02176 11.4035 7.14407 11.2771 7.24027 11.132C7.36055 10.9175 7.11999 10.8251 7.04983 10.6535C7.16672 10.6709 7.28595 10.6653 7.40065 10.637C7.51534 10.6086 7.62321 10.5582 7.71806 10.4885C7.84988 10.4065 8.0034 10.3652 8.15909 10.3696C8.4932 10.3498 8.64355 10.1947 8.55668 9.89439C8.48652 9.65017 8.55668 9.59736 8.77052 9.59406C8.98435 9.59076 9.05786 9.38284 9.25832 9.47525C9.65596 9.6366 9.99327 9.9156 10.2239 10.2739C10.2539 10.3391 10.3004 10.3955 10.359 10.4377C10.4175 10.4799 10.4861 10.5065 10.558 10.5149C11.0158 10.5068 11.4649 10.6381 11.8444 10.8911C11.8688 10.9079 11.8965 10.9196 11.9258 10.9254C11.955 10.9313 11.9851 10.9311 12.0143 10.9249C12.0434 10.9187 12.071 10.9066 12.0952 10.8895C12.1194 10.8723 12.1398 10.8504 12.1551 10.8251C12.1947 10.778 12.2149 10.718 12.2118 10.6569C12.2087 10.5957 12.1825 10.538 12.1384 10.4951C12.0401 10.401 11.9274 10.323 11.8043 10.264C11.527 10.1155 11.243 9.9802 10.959 9.83828C11.2931 9.38284 11.3465 9.40924 10.7852 9.11881C10.2239 8.82838 9.58242 8.84159 8.97767 8.72277C8.91029 8.72252 8.84411 8.70507 8.78557 8.67211C8.72703 8.63914 8.67811 8.5918 8.64355 8.53465C8.54332 8.36964 8.33951 8.20462 8.16243 8.24423C7.98535 8.28383 8.01876 8.54456 8.02878 8.72607C8.02878 8.76568 8.02878 8.80528 8.02878 8.84159C8.02878 9.0198 7.93189 9.0099 7.82831 8.93069C7.75408 8.87413 7.70054 8.79519 7.67582 8.70585C7.6511 8.61651 7.65654 8.52165 7.69133 8.43564C7.71471 8.34984 7.75147 8.26073 7.61448 8.23762C7.42069 8.20792 7.09326 8.53135 7.09994 8.72607C7.09994 9.16172 7.41067 9.35974 7.76817 9.50825C8.06888 9.63696 8.08224 9.68317 7.88177 9.9472C7.84151 10.0023 7.7956 10.0532 7.74478 10.099C7.64789 10.1848 7.53095 10.3564 7.42737 10.297C7.3238 10.2376 7.37392 10.0396 7.39396 9.90099C7.39396 9.85149 7.47081 9.78878 7.39396 9.75248C7.35987 9.73337 7.32057 9.72533 7.28161 9.72947C7.24264 9.73362 7.20598 9.74975 7.17679 9.77558C7.11628 9.84286 7.06257 9.91581 7.01641 9.9934C6.89279 9.82838 6.78587 9.66337 6.6823 9.52475C6.57872 9.38614 6.42503 9.21122 6.2847 9.06601C6.14437 8.92079 6.01407 8.76238 5.76682 8.91089C5.76682 8.68977 5.85369 8.44885 5.55633 8.36964C5.53963 8.36964 5.53628 8.32013 5.5296 8.29373C5.52292 8.26733 5.58306 8.12211 5.45944 8.10891C5.40606 8.09871 5.35075 8.10775 5.30354 8.13439C5.25634 8.16104 5.22037 8.20352 5.20217 8.25413C5.19026 8.30107 5.16107 8.34195 5.1203 8.3688C5.07954 8.39565 5.03011 8.40654 4.98165 8.39934C4.89813 8.39934 4.93488 8.44885 4.91483 8.48845C4.80123 8.73597 5.04514 8.74918 5.13201 8.76898C5.47414 8.8584 5.78714 9.03345 6.0408 9.27723C6.43171 9.60726 6.48517 9.81848 6.16108 10.2178C6.0976 10.297 6.04414 10.4323 5.93054 10.4158C5.81694 10.3993 5.76014 10.2673 5.75012 10.1518C5.74009 10.0363 5.68998 9.9868 5.56635 10.0198C5.14629 10.1063 4.71159 10.095 4.29672 9.9868C3.91249 9.92079 3.90246 9.93069 3.85903 10.3003C3.85903 10.3729 3.85903 10.4554 3.77884 10.5017C3.72204 10.5017 3.70868 10.4455 3.67526 10.4125C3.27099 10.0165 3.24426 10.1023 3.0371 10.4752C2.00173 12.2925 1.2621 14.2594 0.845311 16.3036C0.801474 16.4513 0.788963 16.6064 0.808558 16.7591C1.04912 17.835 1.30305 18.8977 2.24859 19.6304C2.38279 19.7539 2.50473 19.8899 2.61278 20.0363ZM28.2093 16.4059H28.1759C28.2294 16.3432 28.1759 16.3036 28.1425 16.2574C28.089 16.1419 28.0189 16.0198 28.1425 15.9109C28.2108 15.8487 28.2929 15.8031 28.3823 15.7779C28.4717 15.7527 28.5658 15.7485 28.657 15.7657C28.8141 15.7855 28.7573 15.9505 28.774 16.0495C28.7765 16.1572 28.8009 16.2632 28.8458 16.3613C28.8907 16.4594 28.9551 16.5476 29.0353 16.6206C29.1154 16.6936 29.2096 16.7499 29.3122 16.7862C29.4149 16.8224 29.5238 16.8379 29.6327 16.8317C29.8362 16.8482 30.0411 16.8349 30.2407 16.7921C30.4713 16.7393 30.508 16.8317 30.488 17.0231C30.4546 17.3531 30.4278 17.7096 30.3911 18.0528C30.318 18.4825 30.3996 18.9239 30.6216 19.3003C30.8722 19.6799 31.0794 20.0792 31.2899 20.4752C31.5124 20.9128 31.7589 21.3381 32.0283 21.7492C32.0951 21.8449 32.1519 21.9802 32.3223 21.9142C33.0841 21.6139 33.8325 21.3036 34.327 20.6205C34.6377 20.2046 34.6611 20.198 34.4072 19.7624C34.3337 19.6337 34.2735 19.4984 34.2033 19.3597C33.896 19.7822 33.5084 19.7987 33.201 19.3795C33.0206 19.1452 32.8669 18.8911 32.6798 18.6568C32.6448 18.6258 32.6168 18.5879 32.5976 18.5455C32.5785 18.5032 32.5685 18.4573 32.5685 18.4109C32.5685 18.3645 32.5785 18.3186 32.5976 18.2762C32.6168 18.2339 32.6448 18.196 32.6798 18.165C32.8736 18.0363 33.0406 18.1947 33.1342 18.3531C33.2727 18.55 33.4499 18.7173 33.6554 18.8449C34.19 19.2442 34.8148 19.297 35.4496 19.3267C35.6994 19.3256 35.9445 19.3937 36.1571 19.5232C36.3697 19.6527 36.5413 19.8385 36.6524 20.0594C36.7159 20.1716 36.7894 20.2805 36.8562 20.3894C37.0066 20.3069 37.0567 20.0594 37.2405 20.1452C37.4242 20.231 37.3908 20.4026 37.4109 20.5512C37.4509 20.8812 37.4777 21.2112 37.5144 21.5413C37.5317 21.8965 37.6038 22.2471 37.7283 22.5809C37.8018 22.7426 37.8886 22.9109 38.0991 22.9109C38.3096 22.9109 38.3597 22.7327 38.4332 22.5809C38.5463 22.3035 38.5942 22.0045 38.5736 21.7063C38.5591 21.6162 38.5695 21.5239 38.6036 21.4391C38.6377 21.3543 38.6942 21.2802 38.7674 21.2244C39.0722 20.9713 39.3478 20.6857 39.5893 20.3729C39.7028 20.2149 39.8559 20.0886 40.0337 20.0066C40.2107 19.9373 40.2208 19.8251 40.2174 19.6766C40.2174 19.1485 40.1606 18.6238 40.1038 18.099C39.7343 14.6185 38.4309 11.2985 36.3283 8.48185C36.2782 8.41584 36.2414 8.32673 36.1446 8.30693C35.8176 8.21541 35.4963 8.10521 35.1823 7.9769C35.1055 7.9505 35.032 7.90759 35.0286 8.04291C35.0286 8.39934 34.758 8.45545 34.4773 8.44885C33.8291 8.42574 33.1843 8.37954 32.6029 8.77888C32.4292 8.90099 32.2053 8.88779 32.1953 8.53796C32.0283 8.71617 31.8846 8.86799 31.7509 9.0066C31.4837 9.31023 31.2397 9.66667 30.7486 9.38614C30.7018 9.52475 30.8555 9.54125 30.8288 9.67657C30.3731 9.48116 29.9967 9.14075 29.7596 8.70957L30.0937 8.75248C30.4788 8.80792 30.8694 8.81568 31.2565 8.77558C31.36 8.77558 31.487 8.74258 31.5171 8.63036C31.5471 8.51815 31.4402 8.46205 31.3667 8.40264C31.2052 8.27907 31.0199 8.18924 30.8221 8.13861C30.4431 8.0523 30.0576 7.9971 29.6694 7.9736C29.5918 7.97842 29.5142 7.96405 29.4436 7.93178C29.373 7.89951 29.3116 7.85036 29.2651 7.78878C29.2052 7.70889 29.1232 7.64774 29.029 7.61263C28.9348 7.57752 28.8323 7.56993 28.7339 7.59076C28.1354 7.60386 27.5616 7.82871 27.1168 8.22442C26.8089 8.50381 26.5414 8.82363 26.3216 9.17492C26.0965 9.51288 25.8002 9.79883 25.4529 10.0132C24.8414 10.4059 24.8448 10.4092 25.0453 11.099C25.0482 11.1176 25.0482 11.1365 25.0453 11.1551C25.0453 11.3036 25.1188 11.2937 25.2324 11.2409C25.4629 11.1386 25.6266 10.9373 25.8505 10.8152C25.9307 11.0462 25.9975 11.264 26.081 11.4752C26.1511 11.7134 26.2643 11.937 26.4151 12.1353C26.6123 11.8053 26.796 11.4752 26.9831 11.1683C27.07 11.0264 27.1402 10.8944 27.0165 10.7228C26.9779 10.6601 26.9615 10.5864 26.97 10.5135C26.9785 10.4406 27.0113 10.3726 27.0633 10.3201C27.3023 9.88428 27.6466 9.51355 28.0657 9.24092C28.1715 9.17012 28.2997 9.13963 28.4265 9.15512C28.4602 9.15763 28.4929 9.16789 28.5219 9.18508C28.5509 9.20227 28.5754 9.22591 28.5936 9.25413C28.647 9.33994 28.5535 9.36964 28.51 9.40924C28.3372 9.5566 28.1804 9.72141 28.0423 9.90099C27.9392 10.0056 27.8757 10.1421 27.8623 10.2875C27.8489 10.4329 27.8865 10.5784 27.9688 10.6997C28.1726 10.9835 28.4298 10.8614 28.6804 10.8053C28.8141 10.7756 28.9477 10.7459 29.0814 10.7294C29.1488 10.7205 29.2173 10.7253 29.2828 10.7435C29.3483 10.7616 29.4093 10.7928 29.4623 10.835L29.0145 10.9241C28.7881 10.949 28.5644 10.9943 28.3463 11.0594C28.2327 11.1023 28.1592 11.1485 28.2661 11.2838C28.4232 11.4818 28.3363 11.5644 28.1091 11.5842C27.8819 11.604 27.775 11.6568 27.775 11.8746C27.7808 12.0061 27.7399 12.1355 27.6594 12.2403C27.5788 12.3452 27.4637 12.419 27.3339 12.4488C27.0507 12.57 26.7424 12.6228 26.4344 12.6027C26.1264 12.5826 25.8277 12.4903 25.5631 12.3333C25.4047 12.5795 25.1965 12.7907 24.9517 12.9538C24.4665 13.2978 23.9416 13.5836 23.388 13.8053C23.1709 13.8878 23.1776 13.9571 23.3045 14.1155C23.4059 14.2425 23.4954 14.3784 23.5718 14.5215C23.6821 14.7294 23.6219 14.8713 23.3847 14.9241C23.1475 14.9769 22.9303 15.0264 22.7165 15.0627C22.5844 15.0778 22.4622 15.1396 22.3726 15.2366C22.2829 15.3336 22.2318 15.4594 22.2287 15.5908C22.1921 15.7838 22.2013 15.9826 22.2554 16.1716C22.379 16.5809 22.6497 16.8317 22.957 16.8317C23.1462 16.8192 23.328 16.754 23.4812 16.6436C23.6343 16.5332 23.7527 16.3821 23.8224 16.2079C23.9427 15.6469 24.3937 15.4356 24.8247 15.2508C25.0211 15.1658 25.2342 15.1253 25.4484 15.1322C25.6627 15.1391 25.8726 15.1932 26.0629 15.2907C26.2532 15.3882 26.419 15.5265 26.5482 15.6955C26.6774 15.8644 26.7666 16.0598 26.8094 16.2673C26.8294 16.3366 26.8094 16.4587 26.9363 16.3828C27.0633 16.3069 26.9698 16.0528 27.1468 15.9604C27.1936 15.934 27.0767 15.8449 27.0299 15.7921C26.7306 15.4851 26.4579 15.1539 26.2147 14.802C26.1746 14.7426 26.1044 14.6667 26.1679 14.5974C26.2314 14.5281 26.3149 14.5974 26.3817 14.6172C26.6543 14.7433 26.8858 14.9422 27.0499 15.1914C27.2304 15.4422 27.3841 15.703 27.5778 15.9472C27.6422 16.0647 27.7322 16.1666 27.8415 16.2454C27.9507 16.3242 28.0764 16.3779 28.2093 16.4026V16.4059ZM29.8331 18.5149C29.9367 18.538 29.9835 18.6766 29.9935 18.6436C30.0403 18.5314 30.2107 18.4851 30.1539 18.3135C30.1138 18.1914 30.077 18.1023 29.9467 18.0726C29.2689 17.8953 28.5696 17.8109 27.8685 17.8218C27.6848 17.8218 27.5144 17.8812 27.4609 18.0825C27.4074 18.2838 27.3106 18.2343 27.1903 18.2079C26.973 18.1524 26.771 18.0498 26.5989 17.9076C26.4447 17.7905 26.267 17.7072 26.0777 17.6634C25.6801 17.571 25.66 17.5215 25.8237 17.165C25.9474 16.8977 25.8839 16.7657 25.5965 16.7162C25.4857 16.7009 25.3733 16.7009 25.2624 16.7162C24.7346 16.7866 24.2129 16.897 23.7021 17.0462C23.4738 17.1478 23.2274 17.2039 22.9771 17.2112C22.6831 17.165 22.5995 17.2937 22.4993 17.4984C22.3833 17.8638 22.1909 18.2011 21.9346 18.4884C21.5877 18.8077 21.2875 19.1732 21.0426 19.5743C20.8488 19.868 20.7084 20.1518 20.9089 20.5083C20.951 20.6471 20.951 20.7951 20.9089 20.934C20.8855 21.132 20.8555 21.3333 20.8354 21.5314C20.8088 21.6595 20.8103 21.7917 20.8397 21.9192C20.8691 22.0467 20.9257 22.1665 21.0058 22.2706C21.3934 22.67 21.6473 23.1584 22.0082 23.5908C22.0868 23.6959 22.1965 23.7743 22.3222 23.8151C22.4479 23.8559 22.5834 23.8571 22.7098 23.8185C23.0441 23.7187 23.3702 23.594 23.6854 23.4455C23.8871 23.3474 24.1164 23.3191 24.3364 23.3652C24.5563 23.4112 24.7542 23.5291 24.8982 23.6997C24.9379 23.7539 24.991 23.7973 25.0524 23.8256C25.1138 23.8539 25.1815 23.8662 25.2491 23.8614C25.4796 23.8416 25.5531 23.9472 25.5631 24.1617C25.5467 24.7379 25.7215 25.3035 26.061 25.7723C26.2356 26.0196 26.315 26.3204 26.2848 26.6205C26.2616 26.917 26.2113 27.2108 26.1345 27.4983C26.0142 27.8866 26.0142 28.3015 26.1345 28.6898C26.2707 29.0786 26.3823 29.4754 26.4686 29.8779C26.5865 30.4309 26.7417 30.9756 26.933 31.5082C27.1736 32.099 27.4375 32.2145 28.069 32.1056C28.8976 31.9637 29.3654 31.4257 29.7195 30.7393C29.8508 30.441 30.0215 30.1614 30.2274 29.9076C30.298 29.8338 30.3435 29.7399 30.3572 29.6393C30.371 29.5386 30.3525 29.4362 30.3042 29.3465C30.1104 28.8581 30.1104 28.8515 30.5247 28.5446C30.7404 28.4112 30.9122 28.2189 31.0195 27.9911C31.1269 27.7632 31.1651 27.5096 31.1295 27.2607C31.119 27.1178 31.1 26.9757 31.0727 26.835C30.9783 26.4358 30.9903 26.0192 31.1074 25.6259C31.2245 25.2326 31.4428 24.8759 31.7409 24.5908C31.9915 24.3201 32.2488 24.0594 32.4927 23.7888C32.7939 23.4716 33.0069 23.0827 33.1108 22.6601C33.1843 22.33 33.1108 22.2574 32.8201 22.3861C32.6131 22.4841 32.3772 22.5047 32.156 22.444C31.9349 22.3833 31.7435 22.2455 31.6173 22.0561C31.5605 21.9901 31.5037 21.9241 31.4502 21.8548C30.835 21.0384 30.3411 20.1393 29.9835 19.1848C29.8859 18.9734 29.8347 18.7439 29.8331 18.5116V18.5149ZM16.5654 25.8383C16.9463 25.132 16.8995 24.9571 16.2012 24.6073C15.8886 24.4524 15.5967 24.2594 15.3325 24.033C14.6643 23.4554 13.8992 23.1188 12.9937 23.3366C12.9135 23.3564 12.8467 23.3828 12.8367 23.2574C12.8033 22.9274 12.6062 23.0825 12.5026 23.1749C12.1583 23.447 11.8988 23.8097 11.7542 24.2211C11.6138 24.67 11.4668 25.1155 11.3064 25.5413C11.2162 25.7648 11.1854 26.0074 11.217 26.246C11.2486 26.4846 11.3415 26.7112 11.4869 26.9043C11.779 27.3024 11.9953 27.7497 12.125 28.2244C12.1523 28.3618 12.214 28.4903 12.3044 28.5981C12.3949 28.7059 12.5113 28.7896 12.6429 28.8416C13.3111 29.0726 13.4849 29.5743 13.4782 30.2013C13.4507 30.941 13.3226 31.6736 13.0973 32.3795C12.7264 33.6469 12.4291 34.9175 12.5427 36.2541C12.5681 36.7244 12.6897 37.1847 12.9002 37.6073C12.9663 37.7638 13.0806 37.8959 13.2269 37.9847C13.3732 38.0736 13.5441 38.1147 13.7154 38.1023C14.0128 38.0825 14.0495 38.0066 13.8791 37.7723C13.6799 37.5116 13.5075 37.2319 13.3646 36.9373C13.3045 36.8053 13.1975 36.6073 13.5149 36.6733C13.6219 36.6931 13.6686 36.6106 13.7054 36.528C13.7841 36.3508 13.8085 36.1545 13.7756 35.9637C13.756 35.8694 13.7585 35.7719 13.7829 35.6787C13.8072 35.5855 13.8527 35.499 13.9159 35.4257C14.0176 35.3276 14.089 35.2028 14.1215 35.066C14.1541 34.9292 14.1465 34.7861 14.0997 34.6535C14.0395 34.4752 14.0996 34.3234 14.3402 34.4356C14.5206 34.5115 14.7144 34.4653 14.7412 34.2871C14.7679 34.1089 14.8915 34.0693 15.0151 34.0099C15.1387 33.9505 15.2657 33.9076 15.386 33.8482C15.439 33.8343 15.4876 33.8077 15.5278 33.7708C15.5679 33.7339 15.5982 33.6878 15.616 33.6366C15.6338 33.5854 15.6386 33.5307 15.63 33.4772C15.6213 33.4237 15.5995 33.3732 15.5664 33.33C15.5029 33.2013 15.3125 33.0495 15.4161 32.9406C15.5196 32.8317 15.7168 32.9769 15.8671 33.0264C16.1645 33.132 16.2747 33.0891 16.3683 32.7921C16.4047 32.6018 16.5005 32.4275 16.6423 32.2937C16.8915 32.0908 17.0499 31.7992 17.0833 31.4818C17.1127 31.3217 17.154 31.164 17.2069 31.0099C17.2585 30.8186 17.3647 30.646 17.5128 30.5126C17.6608 30.3792 17.8446 30.2906 18.0422 30.2574C18.7739 30.0924 18.8875 29.9571 18.9076 29.2013C18.9003 28.7889 19.0165 28.3836 19.2417 28.0363C19.4355 27.7603 19.5822 27.4548 19.676 27.132C19.7228 26.9538 19.7796 26.736 19.5825 26.6337C19.2484 26.4587 18.9142 26.2046 18.51 26.2409C18.3859 26.2533 18.2607 26.2364 18.1445 26.1916C18.0283 26.1469 17.9246 26.0755 17.8417 25.9835C17.7572 25.8896 17.6462 25.8227 17.523 25.7916C17.3998 25.7604 17.2699 25.7663 17.1501 25.8086C16.9636 25.8805 16.7585 25.8909 16.5654 25.8383ZM12.125 4.87789C12.0631 4.76652 11.9786 4.66892 11.8769 4.59114C11.7751 4.51337 11.6583 4.45707 11.5336 4.42574C11.1187 4.31632 10.6832 4.30727 10.264 4.39934C9.56571 4.52475 8.88077 4.70627 8.18248 4.80858C7.88386 4.85752 7.61199 5.00814 7.41401 5.23432C8.05217 5.66007 8.67028 5.39934 9.30176 5.13862C9.29208 5.24952 9.2433 5.35354 9.16392 5.43255C9.08454 5.51157 8.97961 5.56055 8.86741 5.57096C8.79725 5.58746 8.64021 5.53465 8.70369 5.71947C8.76718 5.90429 8.6636 5.88449 8.53998 5.83498C8.41636 5.78548 8.2493 5.72277 8.10229 5.67987C8.02878 5.65347 7.93189 5.64687 7.89514 5.72607C7.85838 5.80528 7.93857 5.84819 7.98201 5.89769C8.02544 5.9472 8.21255 6.0297 8.27937 6.16172C8.0789 6.27393 7.81829 6.12541 7.63787 6.34324C7.82163 6.41254 7.97198 6.47195 8.13904 6.53795C8.20252 6.56106 8.27937 6.59406 8.25932 6.67657C8.23927 6.75908 8.14572 6.77888 8.06888 6.76238C7.89514 6.72277 7.73476 6.66667 7.47081 6.59736C7.78154 6.87459 7.47081 6.85809 7.35053 6.9703C7.89673 7.17191 8.4886 7.22101 9.0612 7.11221C8.91085 7.06271 8.80059 7.0297 8.69367 6.9901C8.58675 6.9505 8.56003 6.92739 8.55668 6.85479C8.55334 6.78218 8.65358 6.77228 8.71038 6.75578C8.87409 6.70297 9.04449 6.67327 9.21489 6.61716C9.38529 6.56106 9.63253 6.57096 9.64924 6.40594C9.66595 6.24093 9.39531 6.24753 9.26167 6.15842C9.24781 6.14554 9.23548 6.13115 9.22491 6.11551C9.28319 6.03833 9.35876 5.97553 9.4457 5.93201C9.53265 5.8885 9.62862 5.86545 9.72609 5.86469C9.93992 5.84819 10.1538 5.86469 10.3642 5.84489C10.4177 5.84489 10.5547 5.86469 10.4812 5.76238C10.3709 5.61056 10.5079 5.63366 10.5681 5.61056C10.8347 5.52974 11.0855 5.40475 11.3098 5.24093L10.6917 5.34984C11.0425 4.76568 11.5938 4.90759 12.125 4.87789ZM33.0306 27.7723C33.0368 27.6978 33.0289 27.6228 33.0072 27.5512C32.9437 27.4389 32.8535 27.3102 32.6998 27.4422C32.2409 27.812 31.8816 28.2882 31.654 28.8284C31.5446 29.0776 31.5362 29.3588 31.6307 29.6139C31.6638 29.7147 31.7254 29.804 31.8083 29.8713C31.8912 29.9385 31.9919 29.9809 32.0984 29.9934C32.3056 30.0165 32.3958 29.835 32.4827 29.6898C32.8043 29.0976 32.9913 28.4432 33.0306 27.7723ZM7.58441 8.0066C7.91929 8.00143 8.25108 7.94235 8.56671 7.83168C8.67362 7.79868 8.78054 7.78548 8.77386 7.62706C8.76718 7.46865 8.6636 7.44885 8.55334 7.41914C7.99613 7.25849 7.42221 7.16106 6.84267 7.12871C6.75246 7.12871 6.63218 7.06601 6.56536 7.20132C6.53967 7.25765 6.52954 7.31969 6.53599 7.38113C6.54245 7.44258 6.56526 7.50124 6.60211 7.55116C6.70432 7.7122 6.85129 7.84078 7.02547 7.92154C7.19966 8.0023 7.39369 8.03183 7.58441 8.0066ZM11.2597 11.5215C11.4033 11.5215 11.5704 11.571 11.6205 11.3597C11.6706 11.1485 11.5036 11.1188 11.3933 11.0297C11.1443 10.864 10.8733 10.733 10.5881 10.6403C10.1738 10.5017 10.1337 10.5281 9.86307 10.8614C9.75282 10.9967 9.78623 11.0594 9.91987 11.1452C10.2246 11.3485 10.5439 11.5294 10.8754 11.6865C11.0124 11.7426 11.1394 11.8515 11.3131 11.7954L11.2597 11.5215ZM3.57503 9.54125C3.80296 9.59169 4.02642 9.66011 4.24326 9.74588C4.38025 9.78218 4.64754 9.78878 4.62749 9.69307C4.57069 9.41584 4.79789 9.47855 4.91149 9.38944C4.69766 9.15842 4.40698 9.0264 4.21653 8.78218C4.12298 8.66337 4.08957 8.78218 4.05281 8.84159C3.92585 9.07261 3.7755 9.29703 3.59842 9.57096L3.57503 9.54125ZM7.76149 6.0198C7.55724 5.90168 7.36481 5.76465 7.18681 5.61056C7.14004 5.56106 7.10662 5.52475 7.01975 5.57096C6.78253 5.69967 6.74244 5.9637 6.57872 6.13862C6.59324 6.15813 6.61006 6.17586 6.62884 6.19142C6.7391 6.26733 6.70235 6.39604 6.73576 6.52145L7.76149 6.0198ZM13.2677 14.8746C13.0504 15.0642 12.8654 15.287 12.7198 15.5347C12.6596 15.6436 12.6797 15.7129 12.83 15.703C12.9804 15.6931 13.2142 15.6799 13.408 15.6766C13.6018 15.6733 13.6753 15.637 13.6887 15.462C13.7021 15.2871 13.6152 15.132 13.4414 15.132C13.2677 15.132 13.1942 15.0726 13.2677 14.8746ZM8.16577 21.5016L9.73277 21.9835C9.31178 21.5446 8.84402 21.2508 8.16577 21.5016ZM9.16811 8.56436C9.38863 8.56436 9.51893 8.45545 9.48218 8.29043C9.43206 8.07261 9.21823 8.16502 9.07456 8.13201C9.04423 8.12238 9.01199 8.12014 8.98059 8.12551C8.9492 8.13087 8.91959 8.14367 8.8943 8.16282C8.86901 8.18196 8.84879 8.20687 8.83538 8.23542C8.82197 8.26396 8.81576 8.2953 8.81729 8.32673C8.81395 8.54786 9.0211 8.52805 9.15475 8.58086L9.16811 8.56436ZM10.1972 22.1122C10.2879 22.2979 10.4383 22.4488 10.6249 22.5413C10.6513 22.5539 10.6802 22.5607 10.7096 22.5611C10.739 22.5615 10.7681 22.5554 10.7949 22.5435C10.8217 22.5315 10.8455 22.5139 10.8646 22.4918C10.8837 22.4698 10.8977 22.4438 10.9055 22.4158C10.9389 22.3399 10.9623 22.2607 10.8554 22.2343C10.6462 22.1515 10.4226 22.11 10.1972 22.1122ZM5.67995 9.9406C5.83699 9.9406 5.9272 9.91089 5.92052 9.75908C5.92512 9.69305 5.90312 9.62791 5.85931 9.57783C5.81551 9.52776 5.75344 9.49682 5.68664 9.49175C5.51624 9.47525 5.44941 9.62046 5.44273 9.74918C5.43605 9.87789 5.59643 9.90099 5.67995 9.9406ZM6.25797 7.18152C6.31143 6.9868 6.18447 6.9406 6.07087 6.91089C5.90047 6.86469 5.91049 7.03961 5.90381 7.11221C5.88042 7.27393 6.03412 7.29043 6.1544 7.31023C6.27468 7.33003 6.27134 7.23763 6.25797 7.18152ZM5.58974 7.41584C5.58974 7.29703 5.50287 7.22442 5.40264 7.23432C5.35437 7.24252 5.31008 7.26591 5.27636 7.301C5.24264 7.33609 5.22131 7.381 5.21553 7.42904C5.21553 7.53135 5.34584 7.60066 5.44273 7.61386C5.53963 7.62706 5.57638 7.50165 5.59308 7.41584H5.58974Z" fill="#1C58C1"/>
<path opacity="0.4" d="M23.9629 17.6006L36.9433 8.50159C38.7915 11.0967 40.0001 14.0825 40.4729 17.2209C40.9457 20.3592 40.6695 23.5633 39.6663 26.5775L25.8172 25.3795L23.9629 17.6006Z" fill="white"/>
<path d="M25.9068 20.5115C26.0744 19.7326 26.0836 18.9286 25.9339 18.1462C25.7842 17.3637 25.4786 16.6185 25.0348 15.9537C24.8072 15.6117 24.5453 15.2933 24.253 15.0032C22.9189 13.6164 21.1558 12.7073 19.2412 12.4191C21.5979 10.3553 21.4865 7.715 18.9071 4.49828C19.4818 6.10884 19.5508 7.31896 19.1143 8.12864C18.6777 8.93832 17.4971 9.88882 15.5726 10.9801C15.5794 10.857 15.5794 10.7336 15.5726 10.6105C15.5437 8.7139 13.7484 6.25516 10.1867 3.23425C11.1913 4.726 11.7314 6.09564 11.8072 7.34316C11.8829 8.59069 10.9919 10.6424 9.13425 13.4983C5.75078 17.7887 3.72827 21.6732 3.06672 25.1517C2.02874 30.6061 4.33636 35.045 9.98958 38.4686C10.4373 38.7392 10.9084 39.0065 11.3962 39.2706C12.3362 39.627 13.2439 39.9317 14.1192 40.1847C14.1415 40.1847 14.7062 40.3201 15.8132 40.5907C17.1103 40.891 18.4405 41.0285 19.7725 40.9999L20.9619 40.8646L20.5844 40.8811C20.7648 40.858 20.9552 40.8448 21.139 40.8349C21.6702 40.7722 22.2015 40.6864 22.7361 40.5742C23.9718 40.3286 25.1795 39.9615 26.3412 39.4785C23.842 39.8877 21.8852 39.4477 20.4708 38.1583C20.1474 37.8506 19.8554 37.5124 19.5987 37.1484C19.9108 37.4262 20.2818 37.6315 20.6846 37.7491C21.0845 37.8957 21.515 37.9422 21.9375 37.8844C22.4782 37.8153 23.0059 37.6697 23.5045 37.4521C22.0367 37.5423 21.0209 37.0835 20.4574 36.0758C20.2046 35.5845 20.0428 35.0525 19.9796 34.5049C20.1286 34.8135 20.3402 35.0887 20.6011 35.3135C21.1958 35.8349 22.0511 36.0153 23.1671 35.8547C22.5623 35.8844 22.0077 35.5676 21.4965 34.9042C20.5922 33.6677 21.0588 32.7106 22.8964 32.0329C24.7341 31.3553 26.0171 30.5511 26.7455 29.6204C28.1688 27.5676 28.1688 26.1231 26.7455 25.2871C25.4892 24.451 25.2063 22.8558 25.8968 20.5016L25.9068 20.5115ZM18.5797 12.2838C18.0199 12.1798 17.4455 12.1798 16.8857 12.2838C19.2357 10.9152 20.3494 9.58849 20.2269 8.30356C20.6946 9.49828 20.1478 10.8184 18.5864 12.264L18.5797 12.2838ZM13.3241 7.23755C14.91 9.09894 15.3789 10.8228 14.7307 12.4092C13.6625 12.5868 12.6484 12.9996 11.7637 13.6171C13.8041 11.0296 14.3242 8.90092 13.3241 7.23095V7.23755ZM20.0064 35.8184C19.7759 35.7929 19.5562 35.7085 19.3687 35.5737C19.1813 35.4389 19.0325 35.2582 18.9372 35.0494C19.0886 35.8041 19.4127 36.3091 19.9095 36.5643C19.4854 36.4374 19.1095 36.1879 18.8303 35.8481C18.8999 36.2975 19.0444 36.7325 19.2579 37.1352C19.0018 37.0032 18.7679 36.6303 18.5563 36.0164C18.3324 35.4026 18.4694 34.4389 18.9673 33.1319C18.8861 33.708 18.9587 34.295 19.1777 34.8349C19.3331 35.2478 19.6251 35.5967 20.0064 35.825V35.8184ZM18.71 37.1814C19.0773 37.528 19.4704 37.8468 19.8861 38.1352C19.4004 37.9601 18.9484 37.7046 18.5496 37.3795C19.0931 38.3124 20.3271 39.1165 22.2516 39.792C20.7614 39.6336 19.66 39.2068 18.9472 38.5115C18.5589 38.1609 18.2449 37.7377 18.0235 37.2663C17.8021 36.795 17.6777 36.2849 17.6575 35.7656C17.9703 36.2672 18.3281 36.7399 18.7267 37.1782L18.71 37.1814Z" fill="white"/>
<path d="M21.2695 25.8943C21.0269 25.8939 20.7913 25.8139 20.5996 25.667C20.4079 25.5201 20.271 25.3145 20.2104 25.0824L18.9842 20.5346C18.9145 20.2764 18.9442 20.0018 19.0676 19.7641C19.1911 19.5263 19.3994 19.3422 19.6524 19.2475L23.9658 17.5973C24.0914 17.5488 24.2252 17.5242 24.3601 17.5247C24.6083 17.5231 24.8496 17.6054 25.0441 17.7579C25.2385 17.9103 25.3744 18.1238 25.4292 18.363L26.7657 24.056C26.8 24.2045 26.8024 24.3585 26.7725 24.508C26.7427 24.6575 26.6814 24.799 26.5925 24.9235C26.5036 25.0481 26.3892 25.1527 26.2567 25.2307C26.1243 25.3087 25.9766 25.3582 25.8235 25.3762L21.3831 25.8877C21.3454 25.8925 21.3075 25.8947 21.2695 25.8943Z" fill="white"/>
<path d="M25.7474 24.7888L21.327 25.297C21.209 25.3105 21.0901 25.2815 20.9919 25.2155C20.8938 25.1494 20.823 25.0507 20.7924 24.9373L19.5662 20.3828C19.5351 20.2664 19.5485 20.1427 19.604 20.0355C19.6595 19.9283 19.7532 19.8452 19.8669 19.802L24.1804 18.1518C24.247 18.1258 24.3185 18.1142 24.3901 18.118C24.4616 18.1218 24.5315 18.1408 24.595 18.1737C24.6584 18.2066 24.7139 18.2526 24.7577 18.3086C24.8015 18.3647 24.8325 18.4294 24.8486 18.4983L26.1851 24.1881C26.2011 24.2564 26.2022 24.3272 26.1882 24.396C26.1743 24.4647 26.1456 24.5296 26.1042 24.5865C26.0627 24.6434 26.0094 24.6909 25.9479 24.7257C25.8864 24.7606 25.818 24.7821 25.7474 24.7888Z" fill="url(#paint1_linear_561_14)"/>
<path d="M26.9897 25.5116C26.795 25.5113 26.6061 25.4459 26.4538 25.326C26.3015 25.2062 26.1948 25.0389 26.151 24.8515L24.4671 17.8218C24.417 17.6107 24.4503 17.3887 24.5602 17.2011C24.6701 17.0134 24.8483 16.8742 25.0585 16.8119L25.7267 16.6106C25.8584 16.5686 25.996 16.5474 26.1343 16.5479C26.4535 16.5465 26.7636 16.6532 27.0128 16.8502C27.2621 17.0471 27.4355 17.3225 27.5042 17.6304L28.8774 23.6733C28.9602 24.0258 28.8994 24.3964 28.7081 24.7051C28.5169 25.0138 28.2105 25.2358 27.855 25.3234L27.2068 25.4852C27.1357 25.5023 27.0629 25.5112 26.9897 25.5116Z" fill="white"/>
<path d="M27.7049 24.7524L27.0367 24.9142C27.0035 24.9214 26.9693 24.9222 26.9359 24.9163C26.9024 24.9104 26.8705 24.8981 26.8419 24.88C26.8134 24.8619 26.7887 24.8384 26.7694 24.8108C26.75 24.7833 26.7364 24.7522 26.7293 24.7194L25.0587 17.6831C25.0423 17.6197 25.0516 17.5525 25.0847 17.4957C25.1178 17.439 25.172 17.3973 25.2358 17.3795L25.904 17.1782C26.0087 17.1481 26.1185 17.1395 26.2267 17.1529C26.3349 17.1663 26.4392 17.2014 26.5331 17.2562C26.627 17.3109 26.7086 17.384 26.7728 17.4711C26.837 17.5581 26.8824 17.6573 26.9064 17.7624L28.2829 23.8052C28.3298 24.0064 28.2957 24.2176 28.1879 24.3943C28.08 24.5711 27.9068 24.6995 27.7049 24.7524Z" fill="url(#paint2_linear_561_14)"/>
<path d="M49.3751 14.6864H51.9678C51.9799 14.6888 51.9906 14.6955 51.998 14.7052C52.0054 14.715 52.0089 14.7271 52.0079 14.7392V23.6501H60.7784C60.8018 23.6501 60.8152 23.6501 60.8152 23.693V26.3762C60.8152 26.4125 60.8152 26.4323 60.7784 26.4323H49.3751C49.3483 26.4323 49.335 26.4125 49.335 26.3762V14.7392C49.3383 14.7029 49.3517 14.6864 49.3751 14.6864Z" fill="white"/>
<path d="M61.6338 14.6864H64.2667L67.3505 19.363C69.3374 16.3113 70.3609 14.7524 70.4211 14.6864H73.0539C73.0654 14.6895 73.0753 14.6965 73.0821 14.7061C73.0888 14.7158 73.0918 14.7275 73.0906 14.7392C72.8545 15.0758 71.3855 17.3135 68.6837 21.4521V26.3795C68.6837 26.4158 68.6837 26.4356 68.6436 26.4356H66.0442C66.0174 26.4356 66.0041 26.4158 66.0041 26.3795V21.4521L61.5938 14.7194L61.6338 14.6864Z" fill="white"/>
<path d="M73.9098 14.6864H82.7672C83.5557 14.6864 84.274 15.1683 84.9155 16.1319C85.1945 16.6591 85.3445 17.2435 85.3532 17.8382V26.3795C85.3532 26.4158 85.3532 26.4356 85.3131 26.4356H82.7137C82.687 26.4356 82.6736 26.4158 82.6736 26.3795V19.5808C82.6736 18.5445 82.3562 17.869 81.7214 17.5544C81.5894 17.5076 81.4506 17.482 81.3104 17.4785H76.5426V26.3894C76.5426 26.4257 76.5426 26.4455 76.5025 26.4455H73.9098C73.8831 26.4455 73.873 26.4257 73.873 26.3894V14.7392C73.8764 14.7029 73.8898 14.6864 73.9098 14.6864Z" fill="white"/>
<path d="M86.202 14.6864H89.9641C90.031 14.6864 90.2114 14.9141 90.5021 15.3762C90.5912 15.473 91.2271 16.3201 92.4099 17.9174H92.4266C93.8699 15.968 94.6751 14.891 94.8422 14.6864H98.6344C98.6465 14.6888 98.6573 14.6955 98.6647 14.7052C98.6721 14.715 98.6756 14.7271 98.6745 14.7392C98.4919 14.9592 97.0585 16.8866 94.3744 20.5214V20.5445C94.4502 20.6655 95.888 22.6215 98.6879 26.4125L98.6578 26.4356H94.8389C94.6495 26.1936 93.8399 25.1055 92.4099 23.1716H92.3931C90.9676 25.1143 90.1579 26.2024 89.9641 26.4356H86.1719C86.1452 26.4356 86.1318 26.4158 86.1318 26.3795C86.339 26.1242 87.7768 24.1903 90.4453 20.5775V20.5445C90.3383 20.3751 88.9061 18.4334 86.1485 14.7194L86.202 14.6864Z" fill="white"/>
<path d="M99.4492 14.6864H102.52C102.613 14.8316 102.954 15.6369 103.549 17.1055C103.596 17.1848 104.312 18.8855 105.697 22.2079C107.769 17.2574 108.822 14.7502 108.858 14.6864H111.942C111.942 14.759 111.155 16.6424 109.583 20.3366C108.369 23.2805 107.52 25.3135 107.037 26.4356H104.364C104.237 26.1716 102.626 22.3212 99.5294 14.8844C99.5094 14.891 99.4826 14.825 99.4492 14.6864Z" fill="white"/>
<path d="M112.777 14.6864H124.18C124.192 14.6888 124.203 14.6955 124.211 14.7052C124.218 14.715 124.221 14.7271 124.22 14.7392V17.4224C124.22 17.4587 124.22 17.4785 124.18 17.4785H112.777C112.75 17.4785 112.74 17.4587 112.74 17.4224V14.7392C112.744 14.7029 112.757 14.6864 112.777 14.6864ZM112.777 19.2838H124.18C124.193 19.2869 124.204 19.2942 124.211 19.3045C124.218 19.3148 124.222 19.3273 124.22 19.3399V21.7821C124.22 21.8184 124.22 21.8349 124.18 21.8349H112.777C112.75 21.8349 112.74 21.8349 112.74 21.7821V19.3399C112.744 19.3036 112.757 19.2838 112.777 19.2838ZM112.777 23.6534H124.18C124.207 23.6534 124.22 23.6534 124.22 23.6963V26.3795C124.22 26.4158 124.22 26.4356 124.18 26.4356H112.777C112.75 26.4356 112.74 26.4158 112.74 26.3795V23.6963C112.744 23.6699 112.757 23.6534 112.777 23.6534Z" fill="white"/>
<path d="M125.039 14.6864H133.84C134.639 14.6864 135.338 15.1165 135.935 15.9768C136.294 16.5534 136.482 17.2175 136.479 17.8943V20.0197C136.491 20.5457 136.381 21.0674 136.157 21.5446C135.933 22.0218 135.601 22.4418 135.186 22.7722L134.852 22.9801L136.479 26.4026L136.442 26.4257H133.278C133.203 26.3003 132.686 25.2233 131.728 23.1947H127.672V26.3696C127.672 26.4059 127.672 26.4257 127.632 26.4257H125.039C125.012 26.4257 124.999 26.4059 124.999 26.3696V14.7392C125.002 14.7029 125.016 14.6864 125.039 14.6864ZM127.672 17.4917V20.4257H132.74C133.282 20.4257 133.623 20.0956 133.77 19.4356C133.789 19.2868 133.799 19.1368 133.8 18.9867C133.8 18.2805 133.59 17.8096 133.171 17.5742C133.045 17.5249 132.91 17.4992 132.774 17.4983L127.672 17.4917Z" fill="white"/>
<path d="M139.86 14.6864H148.701C148.713 14.6888 148.724 14.6955 148.731 14.7052C148.738 14.715 148.742 14.7271 148.741 14.7392V17.4224C148.741 17.4587 148.741 17.4785 148.701 17.4785H140.609C140.157 17.5577 139.94 17.8646 139.94 18.3993C139.932 18.5581 139.965 18.7164 140.038 18.8583C140.111 19.0002 140.22 19.1208 140.355 19.2079C140.443 19.2614 140.545 19.2879 140.649 19.2838H146.148C146.923 19.2838 147.608 19.715 148.203 20.5775C148.561 21.1459 148.751 21.8022 148.751 22.4719V23.2805C148.762 23.8266 148.637 24.3672 148.386 24.8542C148.136 25.3412 147.768 25.7596 147.314 26.0725C146.954 26.3105 146.531 26.4401 146.098 26.4455H137.297C137.271 26.4455 137.257 26.4257 137.257 26.3894V23.6963C137.257 23.6699 137.277 23.6534 137.297 23.6534H145.34C145.674 23.6534 145.891 23.4488 146.008 23.0395C146.031 22.8646 146.041 22.7623 146.041 22.7326C146.055 22.5767 146.028 22.4199 145.964 22.2768C145.899 22.1338 145.8 22.009 145.674 21.9141C145.582 21.8595 145.477 21.832 145.37 21.8349H139.93C139.039 21.8349 138.292 21.3465 137.688 20.3696C137.405 19.8515 137.257 19.2719 137.257 18.6831V17.8712C137.248 17.3613 137.358 16.8562 137.578 16.3949C137.798 15.9336 138.123 15.5286 138.527 15.2112C138.922 14.9325 139.379 14.7525 139.86 14.6864Z" fill="white"/>
<path d="M149.556 14.6864H160.96C160.972 14.6888 160.982 14.6955 160.99 14.7052C160.997 14.715 161.001 14.7271 161 14.7392V17.4224C161 17.4587 161 17.4785 160.96 17.4785H149.556C149.533 17.4785 149.52 17.4587 149.52 17.4224V14.7392C149.523 14.7029 149.536 14.6864 149.556 14.6864ZM149.556 19.2838H160.96C160.972 19.2869 160.983 19.2942 160.99 19.3045C160.998 19.3148 161.001 19.3273 161 19.3399V21.7821C161 21.8184 161 21.8349 160.96 21.8349H149.556C149.533 21.8349 149.52 21.8349 149.52 21.7821V19.3399C149.523 19.3036 149.536 19.2838 149.556 19.2838ZM149.556 23.6534H160.96C160.986 23.6534 161 23.6534 161 23.6963V26.3795C161 26.4158 161 26.4356 160.96 26.4356H149.556C149.533 26.4356 149.52 26.4158 149.52 26.3795V23.6963C149.523 23.6699 149.536 23.6534 149.556 23.6534Z" fill="white"/>
<defs>
<linearGradient id="paint0_linear_561_14" x1="34.758" y1="5.96701" x2="6.31792" y2="34.7622" gradientUnits="userSpaceOnUse">
<stop stop-color="#69E5D0"/>
<stop offset="0.2" stop-color="#4ED4D8"/>
<stop offset="0.37" stop-color="#3FCADD"/>
<stop offset="0.51" stop-color="#39C7DF"/>
<stop offset="0.62" stop-color="#3AB3DE"/>
<stop offset="0.85" stop-color="#3D7EDB"/>
<stop offset="1" stop-color="#3F5AD9"/>
</linearGradient>
<linearGradient id="paint1_linear_561_14" x1="25.8209" y1="19.363" x2="20.5045" y2="24.7452" gradientUnits="userSpaceOnUse">
<stop stop-color="#69E5D0"/>
<stop offset="0.39" stop-color="#4ED4D8"/>
<stop offset="0.73" stop-color="#3FCADD"/>
<stop offset="1" stop-color="#39C7DF"/>
</linearGradient>
<linearGradient id="paint2_linear_561_14" x1="302.309" y1="467.776" x2="240.582" y2="493.605" gradientUnits="userSpaceOnUse">
<stop stop-color="#69E5D0"/>
<stop offset="0.39" stop-color="#4ED4D8"/>
<stop offset="0.73" stop-color="#3FCADD"/>
<stop offset="1" stop-color="#39C7DF"/>
</linearGradient>
</defs>
</svg>
