<svg width="37" height="20" viewBox="0 0 37 20" fill="none" xmlns="http://www.w3.org/2000/svg">
<path d="M20.1389 12.3957H16.0906C14.6042 12.3948 13.3993 11.1909 13.3984 9.70446C13.3984 8.21801 14.6042 7.01409 16.0906 7.01318H20.1389" stroke="white" stroke-width="1.5" stroke-linecap="round" stroke-linejoin="round"/>
<path d="M16.549 9.64294H16.2373" stroke="white" stroke-width="1.5" stroke-linecap="round" stroke-linejoin="round"/>
<path fill-rule="evenodd" clip-rule="evenodd" d="M6.24766 1H14.8911C17.7892 1 20.1388 3.34951 20.1388 6.24766V13.4247C20.1388 16.3229 17.7892 18.6724 14.8911 18.6724H6.24766C3.34951 18.6724 1 16.3229 1 13.4247V6.24766C1 3.34951 3.34951 1 6.24766 1Z" stroke="white" stroke-width="1.5" stroke-linecap="round" stroke-linejoin="round"/>
<path d="M5.53516 5.5382H10.9341" stroke="white" stroke-width="1.5" stroke-linecap="round" stroke-linejoin="round"/>
<path d="M32.5 12L28.6029 7.5L36.3971 7.5L32.5 12Z" fill="white"/>
</svg>
